<svg xmlns="http://www.w3.org/2000/svg" viewBox="0 0 100 100" class="icon"><defs><style>.stroke-thick-center,.stroke-thin-center{fill:none;stroke:#000;stroke-miterlimit:10;}.stroke-thick-center{stroke-width:10px;}.stroke-thin-center{stroke-width:4px;}</style></defs><title>shape-3d-icosahedron</title><polygon class="stroke-thick-center" points="15.28 30.13 15 30.3 15 70.7 15.14 70.79 15.4 70.93 50 90.7 84.6 70.93 84.86 70.78 85 70.7 85 30.3 84.73 30.13 50.3 10.47 50 10.3 15.28 30.13"></polygon><line class="stroke-thin-center" x1="15" y1="30" x2="32" y2="39"></line><line class="stroke-thin-center" x1="50" y1="11" x2="32" y2="39"></line><line class="stroke-thin-center" x1="68" y1="39" x2="50" y2="11"></line><line class="stroke-thin-center" x1="85" y1="30" x2="68" y2="39"></line><line class="stroke-thin-center" x1="32" y1="39" x2="68" y2="39"></line><line class="stroke-thin-center" x1="15" y1="71" x2="32" y2="39"></line><line class="stroke-thin-center" x1="85" y1="71" x2="68" y2="39"></line><line class="stroke-thin-center" x1="50" y1="71" x2="32" y2="39"></line><line class="stroke-thin-center" x1="68" y1="39" x2="50" y2="71"></line><line class="stroke-thin-center" x1="15" y1="71" x2="50" y2="71"></line><polyline class="stroke-thin-center" points="50 91 50 90.7 50 71"></polyline><line class="stroke-thin-center" x1="85" y1="71" x2="50" y2="71"></line></svg>